<svg width="17" height="17" viewBox="0 0 17 17" fill="none" xmlns="http://www.w3.org/2000/svg">
<rect x="0.828125" y="0.625" width="16" height="16" rx="8" fill="#E6E3DB"/>
<path d="M8.08175 9.237V7.813H8.76175C9.08175 7.813 9.31642 7.73033 9.46575 7.565C9.62042 7.39433 9.69775 7.18633 9.69775 6.941C9.69775 6.765 9.66308 6.613 9.59375 6.485C9.52442 6.35167 9.42308 6.25033 9.28975 6.181C9.15642 6.11167 9.00175 6.077 8.82575 6.077C8.63375 6.077 8.46842 6.117 8.32975 6.197C8.19642 6.277 8.09242 6.38367 8.01775 6.517C7.94308 6.65033 7.90575 6.805 7.90575 6.981H6.84175C6.84175 6.63967 6.91908 6.32767 7.07375 6.045C7.22842 5.76233 7.45508 5.53833 7.75375 5.373C8.05242 5.20233 8.41775 5.117 8.84975 5.117C9.24442 5.117 9.58308 5.19433 9.86575 5.349C10.1538 5.49833 10.3751 5.70367 10.5298 5.965C10.6844 6.22633 10.7618 6.52233 10.7618 6.853V6.949C10.7618 7.27433 10.6844 7.565 10.5298 7.821C10.3751 8.077 10.1458 8.27967 9.84175 8.429C9.54308 8.573 9.17775 8.65033 8.74575 8.661L9.20175 8.245L9.18575 9.237H8.08175ZM7.99375 11.125V9.941H9.27375V11.125H7.99375Z" fill="black"/>
</svg>
